<svg xmlns="http://www.w3.org/2000/svg" viewBox="0 0 32 32"><path d="M30.945 6.402c-.004-.012-.013-.022-.018-.034-.013-.035-.034-.065-.052-.098a.983.983 0 0 0-.222-.286.983.983 0 0 0-.2-.135c-.034-.017-.064-.037-.1-.05A.986.986 0 0 0 30 5.728H2a.986.986 0 0 0-.353.07c-.036.014-.066.034-.1.051a.983.983 0 0 0-.286.219.983.983 0 0 0-.136.202c-.018.033-.039.063-.052.098-.005.012-.014.022-.018.034a.995.995 0 0 0-.053.317L1 6.728v18.544a1 1 0 0 0 1 1h28a1 1 0 0 0 1-1V6.728l-.002-.009a.995.995 0 0 0-.053-.317zm-3.85 1.326L16 16.392 4.905 7.728h22.19zM3 24.272V8.777l12.384 9.672a1 1 0 0 0 1.232 0L29 8.777v15.495H3z"/></svg>